<svg xmlns="http://www.w3.org/2000/svg" viewBox="0 0 32.31 27.69"><defs><style>.cls-1{fill:#fff;}</style></defs><title>twitter_white</title><g id="Layer_2" data-name="Layer 2"><g id="Layer_1-2" data-name="Layer 1"><g id="black"><g id="twitter"><path class="cls-1" d="M27.21,2.28A6.62,6.62,0,0,0,22.37,0a6.7,6.7,0,0,0-6.63,6.91,7.62,7.62,0,0,0,.17,1.6A18.7,18.7,0,0,1,2.25,1a7.36,7.36,0,0,0-.9,3.55A7.3,7.3,0,0,0,4.3,10.43a6.32,6.32,0,0,1-3-.92V9.6a7,7,0,0,0,5.31,7,6.25,6.25,0,0,1-1.74.23,6.46,6.46,0,0,1-1.25-.13,6.73,6.73,0,0,0,6.19,4.93,12.78,12.78,0,0,1-8.23,3A13.82,13.82,0,0,1,0,24.51a17.89,17.89,0,0,0,10.16,3.18C22.35,27.7,29,17.09,29,7.88c0-.3,0-.6,0-.9a13.5,13.5,0,0,0,3.31-3.55,12.88,12.88,0,0,1-3.81,1A6.84,6.84,0,0,0,31.42.66,12.75,12.75,0,0,1,27.21,2.28Z"/></g></g></g></g></svg>