<svg xmlns="http://www.w3.org/2000/svg" viewBox="0 0 35.77 16.15"><defs><style>.cls-1{fill:#fff;}</style></defs><title>Soundcloud_white</title><g id="Layer_2" data-name="Layer 2"><g id="Layer_1-2" data-name="Layer 1"><g id="black"><g id="sound_cloud" data-name="sound cloud"><path id="SoundCloud" class="cls-1" d="M16.15,2.42A8.08,8.08,0,0,1,29.94,7.08a4.84,4.84,0,0,1,1.21-.16A4.62,4.62,0,0,1,32.31,16v.14H16.15V2.42ZM.58,15c.32,0,.57-1.55.57-3.46S.9,8.08.58,8.08,0,9.63,0,11.54.26,15,.58,15Zm2.3,1.15c.32,0,.58-2.06.58-4.61S3.2,6.92,2.88,6.92,2.31,9,2.31,11.54,2.57,16.15,2.88,16.15Zm2.31,0c.32,0,.58-2.06.58-4.61s-.26-4.62-.58-4.62S4.62,9,4.62,11.54,4.87,16.15,5.19,16.15Zm2.31,0c.32,0,.58-2.58.58-5.77S7.82,4.62,7.5,4.62s-.58,2.58-.58,5.76S7.18,16.15,7.5,16.15Zm2.31,0c.32,0,.57-2.84.57-6.34s-.25-6.35-.57-6.35S9.23,6.3,9.23,9.81,9.49,16.15,9.81,16.15Zm2.31,0c.31,0,.57-3.1.57-6.92s-.26-6.92-.57-6.92-.58,3.1-.58,6.92S11.8,16.15,12.12,16.15Zm2.3,0c.32,0,.58-3.1.58-6.92s-.26-6.92-.58-6.92-.57,3.1-.57,6.92S14.1,16.15,14.42,16.15Z"/></g></g></g></g></svg>