<svg xmlns="http://www.w3.org/2000/svg" viewBox="0 0 38.35 26.97"><defs><style>.cls-1{fill:#fff;}</style></defs><title>youtube_white</title><g id="Layer_2" data-name="Layer 2"><g id="Layer_1-2" data-name="Layer 1"><g id="black"><g id="youtube"><path id="Fill-195" class="cls-1" d="M38,5.82S37.59,3.18,36.44,2A5.46,5.46,0,0,0,32.6.39C27.23,0,19.18,0,19.18,0h0S11.12,0,5.75.39A5.46,5.46,0,0,0,1.91,2C.76,3.18.38,5.82.38,5.82A58.46,58.46,0,0,0,0,12v2.91a58.4,58.4,0,0,0,.38,6.2S.76,23.78,1.91,25c1.46,1.53,3.37,1.48,4.23,1.64,3.06.29,13,.38,13,.38s8.06,0,13.43-.4A5.46,5.46,0,0,0,36.44,25C37.59,23.78,38,21.14,38,21.14a58.4,58.4,0,0,0,.38-6.2V12A58.46,58.46,0,0,0,38,5.82ZM15.22,18.46V7.69l10.37,5.4Z"/></g></g></g></g></svg>